<?xml version="1.0" standalone="no"?>
<!DOCTYPE svg PUBLIC "-//W3C//DTD SVG 20010904//EN"
 "http://www.w3.org/TR/2001/REC-SVG-20010904/DTD/svg10.dtd">
<svg version="1.0" xmlns="http://www.w3.org/2000/svg"
 width="318.000000pt" height="159.000000pt" viewBox="0 0 318.000000 159.000000"
 preserveAspectRatio="xMidYMid meet">

<g transform="translate(0.000000,159.000000) scale(0.100000,-0.100000)"
fill="#000000" stroke="none">
<path d="M1075 1250 c-6 -11 16 -44 140 -214 206 -281 216 -297 208 -309 -7
-11 -205 -283 -300 -410 -23 -33 -43 -62 -43 -66 0 -3 39 -3 87 0 70 6 90 11
103 27 8 10 67 90 130 176 63 86 118 156 122 156 3 0 30 -33 59 -72 29 -40 88
-121 132 -180 l79 -108 74 0 c41 0 74 4 74 8 0 5 -74 110 -165 233 -90 123
-164 230 -165 238 0 7 13 30 29 50 100 127 330 454 325 462 -3 5 -40 9 -82 9
l-77 0 -145 -200 c-79 -109 -147 -197 -150 -194 -3 3 -68 92 -145 197 l-141
192 -73 5 c-40 3 -74 3 -76 0z"/>
<path d="M339 894 c-7 -57 3 -329 12 -340 20 -24 29 -4 29 65 l0 68 68 6 c85
7 94 11 116 48 24 40 15 87 -24 124 -27 26 -38 29 -115 33 -47 2 -85 1 -86 -4z
m175 -60 c20 -19 21 -58 2 -73 -19 -16 -79 -25 -110 -17 -23 6 -26 12 -26 50
0 23 3 46 7 49 13 14 111 7 127 -9z"/>
<path d="M620 736 c0 -135 3 -170 15 -182 24 -25 35 -7 35 57 0 32 3 59 8 59
4 0 42 -29 84 -65 42 -36 82 -65 87 -65 26 0 6 31 -54 85 -36 32 -63 60 -60
63 3 3 19 7 35 9 73 8 107 68 76 135 -23 48 -49 60 -143 66 l-83 5 0 -167z
m164 104 c20 -7 26 -17 26 -39 0 -38 -20 -53 -80 -57 -66 -5 -78 16 -54 94 4
14 72 16 108 2z"/>
<path d="M1025 891 c-128 -32 -177 -183 -91 -279 61 -69 156 -85 226 -38 51
33 74 78 74 142 1 109 -108 200 -209 175z m89 -55 c90 -38 103 -154 24 -221
-30 -25 -112 -26 -150 -1 -42 27 -63 81 -49 126 13 46 53 87 95 99 43 13 43
13 80 -3z"/>
<path d="M1967 893 c-4 -3 -7 -52 -7 -108 0 -93 -2 -106 -26 -140 -24 -36 -24
-37 -5 -32 12 3 21 2 21 -2 0 -13 -61 -43 -76 -37 -7 3 -14 1 -14 -4 0 -6 -8
-10 -17 -10 -13 0 -14 -3 -5 -12 31 -31 137 40 163 109 12 33 12 200 -1 224
-11 20 -22 24 -33 12z"/>
<path d="M2057 893 c-4 -3 -7 -66 -7 -140 0 -129 1 -134 23 -142 20 -8 22 -5
25 33 2 22 8 43 13 47 6 3 32 5 57 3 54 -4 75 5 66 29 -4 12 -22 17 -67 19
l-62 3 0 50 0 50 93 3 c80 2 93 5 88 18 -3 9 -6 20 -6 25 0 10 -213 13 -223 2z"/>
<path d="M2424 891 c-95 -23 -154 -126 -124 -217 23 -69 110 -134 177 -134 69
1 154 68 150 118 -2 33 -22 27 -65 -19 -31 -34 -46 -42 -84 -46 -103 -12 -170
85 -123 177 46 89 177 101 223 21 29 -53 74 -53 47 -1 -39 75 -126 119 -201
101z"/>
<path d="M2640 881 c0 -22 23 -34 65 -34 17 0 33 -4 37 -11 4 -6 8 -70 8 -142
0 -98 3 -134 13 -143 8 -6 17 -8 20 -4 4 3 7 70 7 149 0 158 -2 154 71 154 42
0 44 2 29 31 -10 17 -22 19 -130 19 -111 0 -120 -1 -120 -19z"/>
<path d="M2175 570 c-11 -5 -37 -9 -57 -9 -21 -1 -38 -5 -38 -11 0 -11 192
-15 203 -4 25 25 -62 44 -108 24z"/>
<path d="M1220 239 c0 -5 5 -7 10 -4 6 3 10 8 10 11 0 2 -4 4 -10 4 -5 0 -10
-5 -10 -11z"/>
<path d="M1150 230 c-11 -8 -5 -10 23 -8 20 1 37 6 37 10 0 11 -42 10 -60 -2z"/>
</g>
</svg>
